<svg width="64" height="64" viewBox="0 0 64 64" fill="none" xmlns="http://www.w3.org/2000/svg">
<path d="M63.12 18.3095V33.0895H50.2623C49.8842 33.058 49.0648 32.5853 48.8757 32.2386L45.5983 26.0304C44.3062 23.5723 42.0687 22.1857 39.6737 22.3118C37.2786 22.4378 35.2302 24.0451 34.1903 26.6607L29.8414 37.5645L29.2111 35.9258C27.6669 31.9235 23.255 28.8982 18.9061 28.8982L0.0923233 28.9927V18.3095C0.0923233 6.8385 6.93082 0 18.4019 0H44.8105C56.2815 0 63.12 6.8385 63.12 18.3095Z" fill="#2F59FF"/>
<path d="M63.12 44.714V37.8125H50.2623C48.1509 37.8125 45.6613 36.2999 44.6844 34.4405L41.407 28.2323C40.5246 26.5621 39.264 26.6566 38.5707 28.3899L31.3225 46.6994C30.5347 48.7478 29.2111 48.7478 28.3917 46.6994L24.7992 37.6234C23.9483 35.4175 21.3011 33.6212 18.9376 33.6212L0.0923233 33.7157V44.714C0.0923233 55.996 6.71023 62.803 17.8346 62.9921C18.1813 63.0236 18.5594 63.0236 18.9061 63.0236H44.1171C44.5899 63.0236 45.0626 63.0236 45.5038 62.9921C56.5651 62.74 63.12 55.9645 63.12 44.714Z" fill="#2F59FF"/>
<path d="M0.0945414 33.7173V44.1484C0.0315137 43.1399 0 42.0685 0 40.9655V33.7173H0.0945414Z" fill="#2F59FF"/>
</svg>
